# xmcd
#
# Track frame offsets:
#	155
#	18290
#	32847
#	45457
#	55372
#	63255
#	78800
#	93040
#	107750
#	120032
#	135990
#	150995
#	160860
#
# Disc length: 2289 seconds
#
# Revision: 1
# Processed by: cddbd v1.5.2PL0 Copyright (c) Steve Scherf et al.
# Submitted via: audiograbber 1.83.01
#
DISCID=8608ef0d
DTITLE=Eddie Crook - Volume 1993-08
DYEAR=1900
DGENRE=Gospel
TTITLE0=Wilburns - When The Shepherd Comes Home
TTITLE1=Chandlers - I just Saw Jesus
TTITLE2=Dixie Melody Boys - I Wont Compromise
TTITLE3=Kindlers - Oh, What A Revival
TTITLE4=Big Mo - Tougher Than Nails
TTITLE5=Hasty's - He Didn't Move Mt Calvary
TTITLE6=Michael Combs - Round Up For Jesus
TTITLE7=Watkins Family - When The Thorns In His Crown Turn To Gold
TTITLE8=Cedar Creek - He Is My Everything
TTITLE9=Gabbards - He Has The Keys
TTITLE10=Robin Slaughter - Skeltons In The Closet
TTITLE11=Chosen One - Just Like Fire
TTITLE12=Carl And Irma Brown - Roll Out The Carpet
EXTD=
EXTT0=
EXTT1=
EXTT2=
EXTT3=
EXTT4=
EXTT5=
EXTT6=
EXTT7=
EXTT8=
EXTT9=
EXTT10=
EXTT11=
EXTT12=
PLAYORDER=
